<mxfile host="app.diagrams.net" modified="2024-07-09T07:37:38.643Z" agent="Mozilla/5.0 (Windows NT 10.0; Win64; x64) AppleWebKit/537.36 (KHTML, like Gecko) Chrome/125.0.0.0 Safari/537.36 Edg/125.0.0.0" etag="lmM8O1DViOYvS15xTJTr" version="24.6.4" type="github">
  <diagram name="Page-1" id="Sjw4yqdEh9CbgU2x-jjp">
    <mxGraphModel dx="1653" dy="1051" grid="1" gridSize="10" guides="1" tooltips="1" connect="1" arrows="1" fold="1" page="1" pageScale="1" pageWidth="850" pageHeight="1100" math="0" shadow="0">
      <root>
        <mxCell id="0" />
        <mxCell id="1" parent="0" />
        <mxCell id="kJyVKQeK8KMBh7mSW-s_-39" style="edgeStyle=orthogonalEdgeStyle;rounded=0;orthogonalLoop=1;jettySize=auto;html=1;" edge="1" parent="1" source="kJyVKQeK8KMBh7mSW-s_-1" target="kJyVKQeK8KMBh7mSW-s_-26">
          <mxGeometry relative="1" as="geometry" />
        </mxCell>
        <mxCell id="kJyVKQeK8KMBh7mSW-s_-1" value="User Service" style="whiteSpace=wrap;html=1;aspect=fixed;" vertex="1" parent="1">
          <mxGeometry x="425" y="260" width="130" height="130" as="geometry" />
        </mxCell>
        <mxCell id="kJyVKQeK8KMBh7mSW-s_-2" value="&lt;span style=&quot;font-size: 24px;&quot;&gt;PickItUp V1 Backend&lt;/span&gt;" style="text;html=1;align=center;verticalAlign=middle;resizable=0;points=[];autosize=1;strokeColor=none;fillColor=none;spacing=3;" vertex="1" parent="1">
          <mxGeometry x="300" y="10" width="250" height="40" as="geometry" />
        </mxCell>
        <mxCell id="kJyVKQeK8KMBh7mSW-s_-38" style="edgeStyle=orthogonalEdgeStyle;rounded=0;orthogonalLoop=1;jettySize=auto;html=1;" edge="1" parent="1">
          <mxGeometry relative="1" as="geometry">
            <mxPoint x="490" y="630" as="sourcePoint" />
            <mxPoint x="45" y="460" as="targetPoint" />
          </mxGeometry>
        </mxCell>
        <mxCell id="kJyVKQeK8KMBh7mSW-s_-22" value="Rider Service" style="ellipse;whiteSpace=wrap;html=1;aspect=fixed;" vertex="1" parent="1">
          <mxGeometry x="450" y="535" width="130" height="130" as="geometry" />
        </mxCell>
        <mxCell id="kJyVKQeK8KMBh7mSW-s_-30" style="edgeStyle=orthogonalEdgeStyle;rounded=0;orthogonalLoop=1;jettySize=auto;html=1;" edge="1" parent="1" source="kJyVKQeK8KMBh7mSW-s_-23" target="kJyVKQeK8KMBh7mSW-s_-26">
          <mxGeometry relative="1" as="geometry" />
        </mxCell>
        <mxCell id="kJyVKQeK8KMBh7mSW-s_-23" value="Actor" style="shape=umlActor;verticalLabelPosition=bottom;verticalAlign=top;html=1;outlineConnect=0;" vertex="1" parent="1">
          <mxGeometry x="30" y="350" width="30" height="60" as="geometry" />
        </mxCell>
        <mxCell id="kJyVKQeK8KMBh7mSW-s_-28" style="edgeStyle=orthogonalEdgeStyle;rounded=0;orthogonalLoop=1;jettySize=auto;html=1;" edge="1" parent="1" source="kJyVKQeK8KMBh7mSW-s_-26" target="kJyVKQeK8KMBh7mSW-s_-1">
          <mxGeometry relative="1" as="geometry" />
        </mxCell>
        <mxCell id="kJyVKQeK8KMBh7mSW-s_-35" style="edgeStyle=orthogonalEdgeStyle;rounded=0;orthogonalLoop=1;jettySize=auto;html=1;exitX=1;exitY=0.75;exitDx=0;exitDy=0;entryX=0;entryY=0.5;entryDx=0;entryDy=0;" edge="1" parent="1" source="kJyVKQeK8KMBh7mSW-s_-26" target="kJyVKQeK8KMBh7mSW-s_-22">
          <mxGeometry relative="1" as="geometry" />
        </mxCell>
        <mxCell id="kJyVKQeK8KMBh7mSW-s_-42" style="edgeStyle=orthogonalEdgeStyle;rounded=0;orthogonalLoop=1;jettySize=auto;html=1;exitX=1;exitY=0.25;exitDx=0;exitDy=0;entryX=0;entryY=0.5;entryDx=0;entryDy=0;" edge="1" parent="1" source="kJyVKQeK8KMBh7mSW-s_-26" target="kJyVKQeK8KMBh7mSW-s_-41">
          <mxGeometry relative="1" as="geometry" />
        </mxCell>
        <mxCell id="kJyVKQeK8KMBh7mSW-s_-26" value="Auth Service" style="shape=process;whiteSpace=wrap;html=1;backgroundOutline=1;" vertex="1" parent="1">
          <mxGeometry x="210" y="80" width="120" height="510" as="geometry" />
        </mxCell>
        <mxCell id="kJyVKQeK8KMBh7mSW-s_-27" style="edgeStyle=orthogonalEdgeStyle;rounded=0;orthogonalLoop=1;jettySize=auto;html=1;exitX=0.5;exitY=0.5;exitDx=0;exitDy=0;exitPerimeter=0;entryX=-0.042;entryY=0.383;entryDx=0;entryDy=0;entryPerimeter=0;" edge="1" parent="1" source="kJyVKQeK8KMBh7mSW-s_-23" target="kJyVKQeK8KMBh7mSW-s_-26">
          <mxGeometry relative="1" as="geometry" />
        </mxCell>
        <mxCell id="kJyVKQeK8KMBh7mSW-s_-31" value="orders" style="text;html=1;align=center;verticalAlign=middle;whiteSpace=wrap;rounded=0;" vertex="1" parent="1">
          <mxGeometry x="130" y="240" width="60" height="30" as="geometry" />
        </mxCell>
        <mxCell id="kJyVKQeK8KMBh7mSW-s_-32" value="users" style="text;html=1;align=center;verticalAlign=middle;whiteSpace=wrap;rounded=0;" vertex="1" parent="1">
          <mxGeometry x="140" y="300" width="60" height="30" as="geometry" />
        </mxCell>
        <mxCell id="kJyVKQeK8KMBh7mSW-s_-33" style="edgeStyle=orthogonalEdgeStyle;rounded=0;orthogonalLoop=1;jettySize=auto;html=1;entryX=-0.025;entryY=0.771;entryDx=0;entryDy=0;entryPerimeter=0;" edge="1" parent="1" source="kJyVKQeK8KMBh7mSW-s_-23" target="kJyVKQeK8KMBh7mSW-s_-26">
          <mxGeometry relative="1" as="geometry" />
        </mxCell>
        <mxCell id="kJyVKQeK8KMBh7mSW-s_-34" value="riders" style="text;html=1;align=center;verticalAlign=middle;whiteSpace=wrap;rounded=0;" vertex="1" parent="1">
          <mxGeometry x="140" y="440" width="60" height="30" as="geometry" />
        </mxCell>
        <mxCell id="kJyVKQeK8KMBh7mSW-s_-40" style="edgeStyle=orthogonalEdgeStyle;rounded=0;orthogonalLoop=1;jettySize=auto;html=1;entryX=1;entryY=0.3333333333333333;entryDx=0;entryDy=0;entryPerimeter=0;" edge="1" parent="1" source="kJyVKQeK8KMBh7mSW-s_-32" target="kJyVKQeK8KMBh7mSW-s_-23">
          <mxGeometry relative="1" as="geometry" />
        </mxCell>
        <mxCell id="kJyVKQeK8KMBh7mSW-s_-41" value="Order Service" style="shape=hexagon;perimeter=hexagonPerimeter2;whiteSpace=wrap;html=1;fixedSize=1;" vertex="1" parent="1">
          <mxGeometry x="580" y="70" width="120" height="80" as="geometry" />
        </mxCell>
        <mxCell id="kJyVKQeK8KMBh7mSW-s_-43" value="Storage" style="shape=cylinder3;whiteSpace=wrap;html=1;boundedLbl=1;backgroundOutline=1;size=15;" vertex="1" parent="1">
          <mxGeometry x="680" y="550" width="80" height="100" as="geometry" />
        </mxCell>
        <mxCell id="kJyVKQeK8KMBh7mSW-s_-48" value="Order Service" style="shape=hexagon;perimeter=hexagonPerimeter2;whiteSpace=wrap;html=1;fixedSize=1;" vertex="1" parent="1">
          <mxGeometry x="410" y="820" width="120" height="80" as="geometry" />
        </mxCell>
        <mxCell id="kJyVKQeK8KMBh7mSW-s_-54" value="" style="endArrow=classic;startArrow=classic;html=1;rounded=0;" edge="1" parent="1" source="kJyVKQeK8KMBh7mSW-s_-48">
          <mxGeometry width="50" height="50" relative="1" as="geometry">
            <mxPoint x="640" y="700" as="sourcePoint" />
            <mxPoint x="690" y="650" as="targetPoint" />
          </mxGeometry>
        </mxCell>
        <mxCell id="kJyVKQeK8KMBh7mSW-s_-55" value="" style="endArrow=classic;startArrow=classic;html=1;rounded=0;entryX=0.338;entryY=0.977;entryDx=0;entryDy=0;entryPerimeter=0;exitX=0.442;exitY=-0.05;exitDx=0;exitDy=0;exitPerimeter=0;" edge="1" parent="1" source="kJyVKQeK8KMBh7mSW-s_-48" target="kJyVKQeK8KMBh7mSW-s_-22">
          <mxGeometry width="50" height="50" relative="1" as="geometry">
            <mxPoint x="470" y="790" as="sourcePoint" />
            <mxPoint x="540" y="700" as="targetPoint" />
          </mxGeometry>
        </mxCell>
        <mxCell id="kJyVKQeK8KMBh7mSW-s_-58" value="" style="endArrow=classic;startArrow=classic;html=1;rounded=0;entryX=0.654;entryY=1;entryDx=0;entryDy=0;entryPerimeter=0;exitX=0.5;exitY=0;exitDx=0;exitDy=0;" edge="1" parent="1" source="kJyVKQeK8KMBh7mSW-s_-22" target="kJyVKQeK8KMBh7mSW-s_-1">
          <mxGeometry width="50" height="50" relative="1" as="geometry">
            <mxPoint x="530" y="530" as="sourcePoint" />
            <mxPoint x="540" y="430" as="targetPoint" />
          </mxGeometry>
        </mxCell>
        <mxCell id="kJyVKQeK8KMBh7mSW-s_-59" value="" style="endArrow=classic;startArrow=classic;html=1;rounded=0;exitX=0.5;exitY=0;exitDx=0;exitDy=0;exitPerimeter=0;entryX=1;entryY=0.75;entryDx=0;entryDy=0;" edge="1" parent="1" source="kJyVKQeK8KMBh7mSW-s_-43" target="kJyVKQeK8KMBh7mSW-s_-1">
          <mxGeometry width="50" height="50" relative="1" as="geometry">
            <mxPoint x="660" y="440" as="sourcePoint" />
            <mxPoint x="710" y="390" as="targetPoint" />
          </mxGeometry>
        </mxCell>
      </root>
    </mxGraphModel>
  </diagram>
</mxfile>
